<?xml version="1.0" standalone="no"?><!DOCTYPE svg PUBLIC "-//W3C//DTD SVG 1.1//EN" "http://www.w3.org/Graphics/SVG/1.1/DTD/svg11.dtd"><svg t="1500108493334" class="icon" style="" viewBox="0 0 1138 1024" version="1.1" xmlns="http://www.w3.org/2000/svg" p-id="3006" xmlns:xlink="http://www.w3.org/1999/xlink" width="222.265625" height="200"><defs><style type="text/css"></style></defs><path d="M427.045253 512.454303q-29.984028 0-55.879326-11.357587t-44.976043-30.892635-30.438332-45.430346-11.357587-54.970719 11.357587-54.970719 30.438332-44.976043 44.976043-30.438332 55.879326-11.357587q29.075421 0 54.970719 11.357587t44.976043 30.438332 30.438332 44.976043 11.357587 54.970719-11.357587 54.970719-30.438332 45.430346-44.976043 30.892635-54.970719 11.357587zM1137.575865 1024l-1137.575865 0 0-1024 1137.575865 0 0 113.575865 0 910.424135zM1024 113.575865l-909.515528 0 0 702.35315q16.354925-23.62378 36.344277-47.24756t41.795918-42.704525 44.976043-31.346939 46.793256-12.266193q28.166815 0 48.61047 4.088731t36.344277 10.44898 29.529725 14.083407 29.529725 14.083407 35.889973 10.44898 48.156167 4.088731 48.61047-16.809228 37.707187-42.250222 34.527063-54.516415 39.070098-54.516415 51.790594-42.250222 72.688554-16.809228q36.344277 0 69.962733 22.26087t62.239574 57.696539 52.699201 79.048802 42.250222 85.409051l0-643.2937z" p-id="3007"></path></svg>