<?xml version="1.0" standalone="no"?><!DOCTYPE svg PUBLIC "-//W3C//DTD SVG 1.1//EN" "http://www.w3.org/Graphics/SVG/1.1/DTD/svg11.dtd"><svg t="1495174063186" class="icon" style="" viewBox="0 0 1024 1024" version="1.1" xmlns="http://www.w3.org/2000/svg" p-id="1183" xmlns:xlink="http://www.w3.org/1999/xlink" width="200" height="200"><defs><style type="text/css"></style></defs><path d="M525.446 709.765c109.826 0 197.689-89.692 197.689-197.689s-89.692-197.689-197.689-197.689c-109.826 0-197.689 89.692-197.689 197.689s89.692 197.689 197.689 197.689zM745.099 144.153c-10.983 0-20.134 9.151-20.134 20.134v100.676c0 10.983 9.151 20.134 20.134 20.134h100.676c10.983 0 20.134-9.151 20.134-20.134v-100.676c0-10.983-9.151-20.134-20.134-20.134h-100.676zM186.812 87.409v170.234h27.457v-170.234h-27.457zM243.557 87.409v170.234h27.457v-170.234h-27.457zM300.3 87.409v170.234h27.457v-170.234h-27.457zM336.911 341.843h-234.298v-173.893c0-43.93 36.607-80.54 80.54-80.54h688.251c45.761 0 80.54 36.607 80.54 80.54v173.893h-234.298c-47.591-51.251-115.321-84.201-190.367-84.201-76.879 0-144.606 32.949-190.367 84.201zM754.251 398.587h195.859v417.342c0 67.726-54.915 120.811-120.811 120.811h-607.711c-67.726 0-120.811-54.915-120.811-120.811v-417.342h195.859c-16.473 34.779-25.627 73.219-25.627 113.49 0 140.947 113.49 254.432 254.432 254.432s254.432-113.49 254.432-254.432c1.83-40.271-7.321-78.709-25.627-113.49z" fill="" p-id="1184"></path></svg>