<?xml version="1.0" standalone="no"?><!DOCTYPE svg PUBLIC "-//W3C//DTD SVG 1.1//EN" "http://www.w3.org/Graphics/SVG/1.1/DTD/svg11.dtd"><svg t="1495174041454" class="icon" style="" viewBox="0 0 1024 1024" version="1.1" xmlns="http://www.w3.org/2000/svg" p-id="838" xmlns:xlink="http://www.w3.org/1999/xlink" width="200" height="200"><defs><style type="text/css"></style></defs><path d="M203.667 425.126c-4.827 11.263 1.609 19.305 0 62.742 0 11.263-51.483 65.962-72.396 122.268-20.914 54.7-22.523 112.617 8.043 136.749 30.567 22.523 59.525-75.615 64.353-61.134 1.609 6.434 3.219 12.87 6.434 19.305 9.653 27.348 27.348 56.308 51.483 83.658 4.827 6.434-30.567 16.090-51.483 51.483-20.914 35.394 6.434 99.747 111.006 99.747 135.137 0 164.097-46.657 167.315-46.657h20.914c12.87 0 8.043 1.609 19.305 0 6.434 0 72.396 56.308 162.49 46.657 154.447-16.090 130.311-67.569 119.053-99.747-12.87-33.786-57.917-49.872-54.7-51.483 37.003-40.22 43.437-65.962 54.7-102.962 4.827-16.090 40.22 85.266 69.178 61.134 11.263-9.653 33.786-49.872 11.263-136.749-22.523-85.266-67.569-106.181-65.962-122.268 1.609-33.786 1.609-56.308-1.609-62.742-8.043-28.959-25.741-22.523-25.741-28.959 0-170.532-127.095-307.279-284.757-307.279-157.662 0-284.757 138.356-284.757 307.279-1.609 12.87-14.478 3.219-24.132 28.959z" fill="" p-id="839"></path></svg>