<?xml version="1.0" standalone="no"?><!DOCTYPE svg PUBLIC "-//W3C//DTD SVG 1.1//EN" "http://www.w3.org/Graphics/SVG/1.1/DTD/svg11.dtd"><svg t="1495787501236" class="icon" style="" viewBox="0 0 1024 1024" version="1.1" xmlns="http://www.w3.org/2000/svg" p-id="2384" xmlns:xlink="http://www.w3.org/1999/xlink" width="200" height="200"><defs><style type="text/css"></style></defs><path d="M1023.807 194.821c-37.698 16.261-78.594 27.943-120.871 32.459 43.547-25.956 76.665-66.847 92.268-115.568-40.29 24.028-85.76 41.555-133.157 50.649-38.304-40.955-92.864-66.248-153.267-66.248-116.297 0-209.824 94.191-209.824 209.76 0 16.262 1.987 32.518 5.18 48.121-174.108-9.037-329.361-92.205-432.648-219.578-18.186 31.138-28.608 66.908-28.608 105.933 0 72.75 37.038 137.01 93.527 174.708-34.383-1.322-66.907-11.077-94.851-26.616v2.588c0 101.899 72.086 186.395 168.264 205.907-17.527 4.517-36.376 7.104-55.225 7.104-13.61 0-26.621-1.265-39.567-3.252 26.621 83.173 103.945 143.577 196.149 145.564-72.149 56.488-162.425 89.612-260.527 89.612-17.525 0-33.787-0.6-50.649-2.528 92.926 59.74 203.316 94.191 322.258 94.191 385.856 0 597.002-319.607 597.002-596.943 0-9.153 0-18.184-0.606-27.339 40.833-29.872 76.549-66.969 105.152-108.524z" p-id="2385"></path></svg>