<?xml version="1.0" standalone="no"?><!DOCTYPE svg PUBLIC "-//W3C//DTD SVG 1.1//EN" "http://www.w3.org/Graphics/SVG/1.1/DTD/svg11.dtd"><svg t="1495176928310" class="icon" style="" viewBox="0 0 1024 1024" version="1.1" xmlns="http://www.w3.org/2000/svg" p-id="7232" xmlns:xlink="http://www.w3.org/1999/xlink" width="200" height="200"><defs><style type="text/css"></style></defs><path d="M676.56 610.736l-35.04 0-7.232-7.2C677.648 553.12 704 487.696 704 416c0-159.056-128.944-288-288-288S128 256.944 128 416s128.944 288 288 288c71.696 0 137.136-26.368 187.552-69.712l7.184 7.216 0 35.072L830.16 896 896 830.16 676.56 610.736zM416 672c-141.392 0-256-114.608-256-256s114.608-256 256-256 256 114.608 256 256S557.392 672 416 672z" p-id="7233" fill="#ffffff"></path></svg>