<?xml version="1.0" standalone="no"?><!DOCTYPE svg PUBLIC "-//W3C//DTD SVG 1.1//EN" "http://www.w3.org/Graphics/SVG/1.1/DTD/svg11.dtd"><svg t="1517129906852" class="icon" style="" viewBox="0 0 1024 1024" version="1.1" xmlns="http://www.w3.org/2000/svg" p-id="1979" xmlns:xlink="http://www.w3.org/1999/xlink" width="16" height="16"><defs><style type="text/css"></style></defs><path d="M239.8 672.2c-61.6 0-111.8 50.2-111.8 111.6 0 61.6 50.2 111.2 111.8 111.2 61.8 0 111.8-49.8 111.8-111.2C351.6 722.4 301.6 672.2 239.8 672.2z" p-id="1980" fill="#1296db"></path><path d="M128 384l0 159.8c96 0 188.2 28.4 256 96.2 67.8 67.8 96 159.8 96 256l160 0C640 616.2 408 384 128 384z" p-id="1981" fill="#1296db"></path><path d="M128 128l0 159.8c342 0 607.8 266 607.8 608.2L896 896C896 472.6 552 128 128 128z" p-id="1982" fill="#1296db"></path></svg>