<?xml version="1.0" standalone="no"?><!DOCTYPE svg PUBLIC "-//W3C//DTD SVG 1.1//EN" "http://www.w3.org/Graphics/SVG/1.1/DTD/svg11.dtd"><svg t="1495174058802" class="icon" style="" viewBox="0 0 1024 1024" version="1.1" xmlns="http://www.w3.org/2000/svg" p-id="1067" xmlns:xlink="http://www.w3.org/1999/xlink" width="200" height="200"><defs><style type="text/css"></style></defs><path d="M712.779 484.273c0-8.579 75.506-78.938 0-123.555s-214.506 24.025-209.359 15.443c60.062-104.679-25.741-137.283-68.643-137.283-102.962 0-374.098 229.952-374.098 375.813s180.186 264.273 403.271 264.273 401.554-118.406 401.554-264.273c0-123.555-152.73-123.555-152.73-130.419zM474.246 798.311c-140.717 20.592-267.705-39.47-281.43-133.852s90.95-185.333 233.382-205.926c142.433-20.592 267.705 39.47 281.43 133.852s-90.95 185.333-233.382 205.926z" fill="" p-id="1068"></path><path d="M800.297 434.506h17.163c10.297 0 20.592-8.579 22.308-18.876 0 0 18.876-77.222-27.457-120.125s-108.113-27.457-108.113-27.457c-10.297 1.716-18.876 12.014-18.876 22.308v6.863c0 10.297 8.579 18.876 18.876 17.163 0 0 51.483-6.863 77.222 24.025s5.149 78.938 5.149 78.938c-3.434 10.297 3.434 17.163 13.728 17.163z" fill="" p-id="1069"></path><path d="M899.826 207.989c-85.804-82.37-212.788-70.359-212.788-70.359-15.443 0-27.457 13.728-27.457 29.171v13.728c0 15.443 12.014 27.457 29.171 27.457 0 0 121.84-13.728 173.323 61.778s29.171 169.888 29.171 169.888c-1.716 15.443 8.579 27.457 24.025 27.457h12.014c15.443 0 30.89-12.014 32.605-27.457-1.716 0 25.741-147.58-60.062-231.666zM398.74 510.014c-84.086 17.163-142.433 87.519-128.703 159.594s94.384 116.691 178.469 99.53 142.433-87.519 128.703-159.594-94.384-116.691-178.469-99.53zM391.875 698.779c-25.741 12.014-54.915 5.149-63.493-13.728-8.579-20.592 5.149-46.333 30.89-58.347s54.915-6.863 63.493 13.728c8.579 20.592-5.149 46.333-30.89 58.347zM451.938 638.717c-15.443 0-27.457-12.014-25.741-25.741 0-13.728 12.014-25.741 25.741-25.741s25.741 10.297 25.741 25.741c0 13.728-12.014 25.741-25.741 25.741z" fill="" p-id="1070"></path></svg>